<?xml version="1.0" encoding="UTF-8"?>
<svg id="Layer_1" data-name="Layer 1" xmlns="http://www.w3.org/2000/svg" viewBox="0 0 128 128">
  <defs>
    <style>
      .cls-1 {
        fill: none;
        stroke: #a5a5a5;
        stroke-width:3px;
        stroke-miterlimit: 10;
      }
    </style>
  </defs>
  <path class="cls-1" d="M46.06,113.04c3.46,0,6.26-2.8,6.26-6.26,0-1.72-.7-3.29-1.83-4.42l-7.13-7.05h63.62c3.46,0,6.26-2.8,6.26-6.26s-2.8-6.26-6.26-6.26h-63.75s7.67-8.54,7.67-8.54c.89-1.09,1.42-2.47,1.42-3.99,0-3.45-2.8-6.26-6.26-6.26-1.29,0-2.49.4-3.5,1.07l-.48.35-25.04,18.78c-1.4,1.15-2.29,2.89-2.29,4.83,0,2.16,1.1,4.07,2.77,5.2l24.46,17.29.92.65c.93.55,2.01.87,3.16.87Z"/>
  <path class="cls-1" d="M81.94,64c-3.46,0-6.26-2.8-6.26-6.26,0-1.72.7-3.29,1.83-4.42l7.13-7.05H21.02c-3.46,0-6.26-2.8-6.26-6.26s2.8-6.26,6.26-6.26h63.75s-7.67-8.54-7.67-8.54c-.89-1.09-1.42-2.47-1.42-3.99,0-3.45,2.8-6.26,6.26-6.26,1.29,0,2.49.4,3.5,1.07l.48.35,25.04,18.78c1.4,1.15,2.29,2.89,2.29,4.83,0,2.16-1.1,4.07-2.77,5.2l-24.46,17.29-.92.65c-.93.55-2.01.87-3.16.87Z"/>
</svg>